<svg xmlns="http://www.w3.org/2000/svg" width="44" height="44" viewBox="0 0 44 44">
  <metadata><?xpacket begin="﻿" id="W5M0MpCehiHzreSzNTczkc9d"?>
<x:xmpmeta xmlns:x="adobe:ns:meta/" x:xmptk="Adobe XMP Core 5.6-c142 79.160924, 2017/07/13-01:06:39        ">
   <rdf:RDF xmlns:rdf="http://www.w3.org/1999/02/22-rdf-syntax-ns#">
      <rdf:Description rdf:about=""/>
   </rdf:RDF>
</x:xmpmeta>
                                                                                                    
                                                                                                    
                                                                                                    
                                                                                                    
                                                                                                    
                                                                                                    
                                                                                                    
                                                                                                    
                                                                                                    
                                                                                                    
                                                                                                    
                                                                                                    
                                                                                                    
                                                                                                    
                                                                                                    
                                                                                                    
                                                                                                    
                                                                                                    
                                                                                                    
                                                                                                    
                           
<?xpacket end="w"?></metadata>
<defs>
    <style>
      .cls-1 {
        fill: #b3b3b3;
        fill-rule: evenodd;
      }
    </style>
  </defs>
  <path id="圆角矩形_3_拷贝" data-name="圆角矩形 3 拷贝" class="cls-1" d="M1219,1189.22h-19.78V1209a1,1,0,0,1-1,1h-0.44a1,1,0,0,1-1-1v-19.78H1177a1,1,0,0,1-1-1v-0.44a1,1,0,0,1,1-1h19.78V1167a1,1,0,0,1,1-1h0.44a1,1,0,0,1,1,1v19.78H1219a1,1,0,0,1,1,1v0.44A1,1,0,0,1,1219,1189.22Z" transform="translate(-1176 -1166)"/>
</svg>
